<?xml version="1.0" encoding="utf-8"?>
<!-- Generator: Adobe Illustrator 16.0.0, SVG Export Plug-In . SVG Version: 6.00 Build 0)  -->
<!DOCTYPE svg PUBLIC "-//W3C//DTD SVG 1.1//EN" "http://www.w3.org/Graphics/SVG/1.1/DTD/svg11.dtd">
<svg version="1.1" xmlns="http://www.w3.org/2000/svg" xmlns:xlink="http://www.w3.org/1999/xlink" x="0px" y="0px" width="39.25px"
	 height="39.098px" viewBox="0 0 39.25 39.098" enable-background="new 0 0 39.25 39.098" xml:space="preserve">
<g id="Layer_2">
</g>
<g id="Layer_1">
</g>
<g id="Layer_3">
	<g>
		<circle fill="#119E9E" stroke="#000000" stroke-miterlimit="10" cx="20.056" cy="19.729" r="17.61"/>
		<g>
			<polygon stroke="#000000" stroke-width="0.8569" stroke-miterlimit="10" points="20.056,1.987 20.098,19.201 22.832,2.206 
				20.18,19.214 25.539,2.855 20.259,19.24 28.11,3.921 20.332,19.278 30.484,5.375 20.4,19.327 32.602,7.184 20.459,19.385 
				34.41,9.301 20.508,19.453 35.865,11.675 20.545,19.526 36.93,14.247 20.57,19.605 37.58,16.954 20.584,19.688 37.798,19.729 
				20.584,19.771 37.58,22.505 20.57,19.853 36.93,25.211 20.545,19.932 35.865,27.784 20.508,20.006 34.41,30.158 20.459,20.073 
				32.602,32.275 20.4,20.132 30.484,34.083 20.332,20.181 28.11,35.537 20.259,20.219 25.539,36.603 20.18,20.244 22.832,37.253 
				20.098,20.257 20.056,37.471 20.014,20.257 17.28,37.253 19.932,20.244 14.573,36.603 19.854,20.219 12.002,35.537 
				19.779,20.181 9.627,34.083 19.712,20.132 7.511,32.275 19.653,20.073 5.702,30.158 19.604,20.006 4.248,27.784 19.566,19.932 
				3.182,25.211 19.541,19.853 2.532,22.505 19.527,19.771 2.314,19.729 19.527,19.688 2.532,16.954 19.541,19.605 3.182,14.247 
				19.566,19.526 4.248,11.675 19.604,19.453 5.702,9.301 19.653,19.385 7.511,7.184 19.712,19.327 9.627,5.375 19.779,19.278 
				12.002,3.921 19.854,19.24 14.573,2.855 19.932,19.214 17.28,2.206 20.014,19.201 			"/>
			<circle cx="20.057" cy="19.729" r="8.873"/>
			<circle fill="#FFFFFF" cx="24.961" cy="16.954" r="1.93"/>
		</g>
	</g>
</g>
</svg>
