<?xml version="1.0"?>
<svg xmlns="http://www.w3.org/2000/svg" xmlns:xlink="http://www.w3.org/1999/xlink" version="1.1" id="Capa_1" x="0px" y="0px" viewBox="0 0 480 480" style="enable-background:new 0 0 480 480;" xml:space="preserve" width="512px" height="512px"><g><g>
	<g>
		<path d="M320,464h-38.664C349.56,417.248,432,278.288,432,192C432,86.136,345.864,0,240,0S48,86.136,48,192    c0,86.288,82.44,225.248,150.664,272H152c-4.424,0-8,3.576-8,8s3.576,8,8,8h168c4.424,0,8-3.576,8-8S324.424,464,320,464z M64,192    c0-97.048,78.952-176,176-176s176,78.952,176,176c0,101.24-119.968,272-176,272C174.496,464,64,278.592,64,192z" data-original="#000000" class="active-path" data-old_color="#463232" fill="#FFFFFF"/>
	</g>
</g><g>
	<g>
		<path d="M240,48c-74.992,0-136,61.008-136,136s61.008,136,136,136s136-61.008,136-136S314.992,48,240,48z M240,304    c-66.168,0-120-53.832-120-120S173.832,64,240,64s120,53.832,120,120S306.168,304,240,304z" data-original="#000000" class="active-path" data-old_color="#463232" fill="#FFFFFF"/>
	</g>
</g><g>
	<g>
		<path d="M287.896,377.256c-0.944-2.904-3.448-5.016-6.464-5.448l-23.672-3.448l-10.584-21.448c-2.688-5.472-11.656-5.472-14.344,0    l-10.584,21.448l-23.672,3.448c-3.016,0.44-5.52,2.544-6.464,5.448c-0.936,2.888-0.16,6.072,2.024,8.192l17.136,16.696    l-4.04,23.576c-0.512,3,0.72,6.04,3.176,7.832c2.48,1.784,5.744,2.024,8.432,0.6L240,423.016l21.168,11.136    c1.168,0.616,2.456,0.92,3.728,0.92c1.656,0,3.304-0.512,4.704-1.52c2.464-1.792,3.696-4.832,3.176-7.832l-4.04-23.576    l17.136-16.696C288.048,383.32,288.832,380.144,287.896,377.256z M254.552,393.616c-1.88,1.832-2.744,4.488-2.296,7.08    l2.008,11.752l-10.536-5.544c-1.168-0.624-2.448-0.928-3.728-0.928c-1.28,0-2.56,0.304-3.728,0.92l-10.536,5.544l2.008-11.752    c0.448-2.592-0.416-5.24-2.296-7.08l-8.528-8.312l11.792-1.72c2.608-0.376,4.856-2.016,6.024-4.376L240,368.528l5.272,10.68    c1.168,2.36,3.416,4,6.024,4.376l11.792,1.72L254.552,393.616z" data-original="#000000" class="active-path" data-old_color="#463232" fill="#FFFFFF"/>
	</g>
</g><g>
	<g>
		<path d="M120,464H72c-4.424,0-8,3.576-8,8s3.576,8,8,8h48c4.424,0,8-3.576,8-8S124.424,464,120,464z" data-original="#000000" class="active-path" data-old_color="#463232" fill="#FFFFFF"/>
	</g>
</g><g>
	<g>
		<path d="M400,464h-48c-4.424,0-8,3.576-8,8s3.576,8,8,8h48c4.424,0,8-3.576,8-8S404.424,464,400,464z" data-original="#000000" class="active-path" data-old_color="#463232" fill="#FFFFFF"/>
	</g>
</g><g>
	<g>
		<path d="M224,80c-0.728,0-1.44,0.048-2.152,0.096l-0.832,0.056c-3.344,0.112-6.256,2.288-7.312,5.464l-11.136,33.4l-34.16,102.464    c-0.904,2.704-0.296,5.688,1.584,7.832c1.544,1.72,3.736,2.688,6.008,2.688v20c0,11.032,8.968,20,20,20s20-8.968,20-20    c0-2.2,1.8-4,4-4s4,1.8,4,4v16c0,11.032,8.968,20,20,20s20-8.968,20-20v-53.448l22.928-4.584l33.912-6.784    c3.4-0.68,5.968-3.472,6.376-6.912C327.744,191.8,328,187.784,328,184C328,126.656,281.344,80,224,80z M216,160    c4.416,0,8,3.584,8,8s-3.584,8-8,8s-8-3.584-8-8S211.584,160,216,160z M248,268c0,2.2-1.8,4-4,4s-4-1.8-4-4v-16    c0-11.032-8.968-20-20-20s-20,8.968-20,20c0,2.2-1.8,4-4,4s-4-1.8-4-4v-21.584l56-12.44V268z M248,184    c0,6.248,2.456,11.888,6.376,16.168l-0.112,0.024l-0.04,0.008l-66.272,13.256l9.952-29.864C202.312,188.696,208.744,192,216,192    c13.232,0,24-10.768,24-24s-10.768-24-24-24c-1.752,0-3.448,0.208-5.088,0.568l5.304-15.912c0.432-0.064,0.872-0.16,1.304-0.208    c0.944-0.112,1.88-0.176,2.808-0.232c1.2-0.08,2.4-0.144,3.592-0.152c0.928,0,1.848,0.032,2.76,0.08    c1.2,0.056,2.4,0.136,3.584,0.272c0.84,0.096,1.672,0.216,2.504,0.352c1.248,0.2,2.496,0.432,3.72,0.712    c0.72,0.168,1.432,0.352,2.144,0.544c1.32,0.36,2.616,0.768,3.896,1.224c0.584,0.208,1.152,0.416,1.728,0.64    c1.376,0.544,2.728,1.136,4.056,1.784c0.448,0.216,0.888,0.432,1.328,0.664c1.408,0.736,2.776,1.528,4.104,2.376    c0.336,0.216,0.68,0.424,1.008,0.64c1.392,0.92,2.728,1.912,4.032,2.952c0.256,0.2,0.512,0.4,0.76,0.608    c1.328,1.096,2.592,2.264,3.808,3.472c0.2,0.2,0.416,0.392,0.616,0.6c1.216,1.24,2.36,2.552,3.456,3.896    c0.176,0.224,0.368,0.432,0.544,0.648c1.064,1.344,2.048,2.76,2.984,4.2c0.168,0.264,0.36,0.512,0.528,0.784    c0.888,1.416,1.688,2.888,2.448,4.376c0.168,0.328,0.36,0.648,0.52,0.976c0.064,0.136,0.112,0.272,0.176,0.408    C273.752,160.168,272.896,160,272,160C258.768,160,248,170.768,248,184z M272,192c-4.416,0-8-3.584-8-8s3.584-8,8-8    c4.416,0,8,3.584,8,8S276.416,192,272,192z M311.848,188.672l-16.296,3.256c0.296-2.64,0.448-5.28,0.448-7.928    c0-39.704-32.296-72-72-72c-0.744,0-1.496,0.016-2.24,0.04l5.328-15.984C274.176,97.688,312,136.504,312,184    C312,185.496,311.952,187.04,311.848,188.672z" data-original="#000000" class="active-path" data-old_color="#463232" fill="#FFFFFF"/>
	</g>
</g></g> </svg>
