<?xml version="1.0" encoding="utf-8"?>
<!-- Generator: Adobe Illustrator 16.0.0, SVG Export Plug-In . SVG Version: 6.00 Build 0)  -->
<!DOCTYPE svg PUBLIC "-//W3C//DTD SVG 1.1//EN" "http://www.w3.org/Graphics/SVG/1.1/DTD/svg11.dtd">
<svg version="1.1" xmlns="http://www.w3.org/2000/svg" xmlns:xlink="http://www.w3.org/1999/xlink" x="0px" y="0px" width="301.5px"
	 height="370px" viewBox="0 0 301.5 370" enable-background="new 0 0 301.5 370" xml:space="preserve">
<g id="Layer_2">
</g>
<g id="Layer_1">
</g>
<g id="Layer_3">
</g>
<g id="Layer_4">
	<path stroke="#FFFFFF" stroke-width="1.0497" stroke-miterlimit="10" d="M258.067,125.396l-11.434,23.001
		c-18.926,2.509-46.424,3.638-86.408,1.668c0,0-70.973-11.303-116.217,30.48c0,0-17.35,19.383,6.984,42.549
		c3.594,3.421,4.666,9.5-1.168,19c-1.166,1.898-10.666,24.167,10.719,29.663c15.887,4.083,55.117-11.044,55.117-11.044l0.211-21.323
		l-10.971-28.222c22.018-5.279,51.494-4.007,88.717,1.32c0,0,7.453,11.515,16.208,12.772c28.278,4.059,85.842-5.1,81.169-36.372
		C288.359,171.249,274.292,117.999,258.067,125.396z M252.37,147.557c6.123-1.201,15.91-3.373,23.727-6.285
		C270.802,143.559,263.214,145.797,252.37,147.557z"/>
	<path stroke="#FFFFFF" stroke-width="2" stroke-miterlimit="10" d="M281.009,75.699c-6.732-26.946-19.135-18.301-22.322-24.214
		c-16.92-31.368-53.686-19.992-53.686-19.992s-18.342-7.497-24.721-9.011c-13.108-3.11-39.332-7.884-53.684-2.534
		c-9.203,3.431-28.109,14.449-37.474,11.544C56.435,21.356,38.485,45.747,38.485,45.747S0.692,58.966,23.153,89.795
		c8.5,11.667,15.861,6.023,16.625,10.844c2.375,14.989,13.061,23.14,13.061,23.14s-4.789,19.51,10.363,25.745
		c0,0,1.504,8.74,4.889,17.351c4.789,12.18-3.369,16.852,9.551,45.24c3.896,8.563,17.207,26.158,21.082,35.51
		c3.474,8.387,4.849,22.137,9.805,32.938c3.33,7.258,10.673,12.299,11.528,14.723c2.128,6.029,1.241,16.139,10.996,26.604
		c3.294,3.533,14.321,23.256,26.104,23.884c22.33,1.189,17.33-32.978,24.33-40.811c6.79-7.598,11.398-18.325,14.125-38.231
		c1.775-12.951,10.287-38.486,10.287-38.486s13.027-12.031,18.623-22.172c4.709-8.537,6.031-31.748,6.031-31.748
		s18.021-35.553,24.229-66.68c1.133-5.682,4.344-6.1,5.744-8.166c0.549-0.808,0.859-1.8,0.979-2.903
		c0.043,0.093,0.068,0.154,0.068,0.154S285.532,93.805,281.009,75.699z M122.386,116.54c0,0,33.99-57.487,85.644-0.76
		C208.029,115.78,175.673,168.979,122.386,116.54z"/>
	<path fill="none" stroke="#FFFFFF" stroke-width="19" stroke-miterlimit="10" d="M287.401,65.95
		c-6.326-25.322-17.98-17.199-20.977-22.755c-15.9-29.478-50.451-18.787-50.451-18.787s-17.234-7.045-23.227-8.467
		c-12.318-2.923-36.962-7.409-50.449-2.381c-8.648,3.224-26.414,13.577-35.214,10.848c-30.719-9.525-44.206,16.935-44.206,16.935
		s-37.189,3.887-19.73,35.192c3.247,5.821,16.817,10.055,16.817,10.055s0.03-0.12,0.085-0.32
		c2.551,14.837,12.937,24.861,12.937,24.861s-4.5,18.334,9.739,24.193c0,0,1.413,8.213,4.594,16.305
		c4.5,11.445-3.166,15.836,8.975,42.514c3.662,8.047,16.17,24.582,19.812,33.37c3.265,7.88,4.557,20.802,9.214,30.952
		c3.129,6.82,10.029,11.557,10.834,13.834c2,5.666,1.166,15.166,10.333,25c3.095,3.32,13.929,26.289,17.167,25.833
		c9.073-1.276,22.832-41.5,22.832-41.5s18.105-17.46,20.668-36.167c1.666-12.169,9.666-36.166,9.666-36.166
		s12.242-11.306,17.5-20.836c4.426-8.021,5.668-29.834,5.668-29.834s16.936-33.409,22.768-62.661
		c1.064-5.339,4.082-5.731,5.398-7.672c0.516-0.76,0.807-1.693,0.92-2.729c0.039,0.087,0.064,0.145,0.064,0.145
		S291.653,82.962,287.401,65.95z"/>
	<path fill="#FCC675" stroke="#000000" stroke-miterlimit="10" d="M259.28,68.796c-20-13.333-32.293-6.798-37.096-6.258
		c-6.738,0.758-13.844-0.318-22.404-8.742c0,0-14.084,4.167-41.459-6.458c-5.697-2.212-24.229,7.317-28.761,7.866
		c-7.819,0.946-19.847,1.544-29.442,7.954C80.946,75.962,68.446,58.129,59.28,80.129c0.25,18.061,13.5,30.836,13.5,30.836
		s-4.5,18.333,9.74,24.193c0,0,1.412,8.212,4.594,16.304c4.499,11.445-3.168,15.836,8.974,42.514
		c3.662,8.047,16.171,24.582,19.812,33.37c3.265,7.88,4.557,20.802,9.214,30.952c3.13,6.82,10.03,11.557,10.833,13.834
		c2,5.666,1.167,15.166,10.334,25c3.095,3.32,13.928,26.289,17.166,25.833c9.074-1.276,22.834-41.5,22.834-41.5
		s18.104-17.46,20.666-36.167c1.668-12.169,9.668-36.166,9.668-36.166s12.242-11.306,17.5-20.836
		c4.426-8.021,5.666-29.834,5.666-29.834s16.938-33.409,22.77-62.661c1.064-5.339,4.082-5.731,5.396-7.672
		C270.917,83.745,266.917,73.887,259.28,68.796z M124.692,115.992c0,0,37.73-34.859,81.303,0
		C205.995,115.992,169.286,152.564,124.692,115.992z"/>
	<g>
		<path fill="#009444" stroke="#000000" stroke-width="0.9646" stroke-miterlimit="10" d="M149.735,219.362
			c-0.884,2.896,10.168,1.255,10.949-2.464c0.658-3.125-6.67-10.005,3.285-12.314c8.174-1.896-17.39-27.867-24.453,0
			c-0.579,2.289-1.564,10.765,4.379,8.211C145.847,211.957,152.901,208.98,149.735,219.362z"/>
		
			<line fill="none" stroke="#000000" stroke-width="0.9646" stroke-linecap="round" stroke-miterlimit="10" x1="155.469" y1="211.942" x2="157.485" y2="219.758"/>
		
			<line fill="none" stroke="#000000" stroke-width="0.9646" stroke-linecap="round" stroke-miterlimit="10" x1="157.485" y1="212.804" x2="159.271" y2="218.781"/>
		
			<line fill="none" stroke="#000000" stroke-width="0.9646" stroke-linecap="round" stroke-miterlimit="10" x1="159.257" y1="194.92" x2="152.797" y2="196.993"/>
		
			<line fill="none" stroke="#000000" stroke-width="0.9646" stroke-linecap="round" stroke-miterlimit="10" x1="161.794" y1="196.504" x2="152.558" y2="199.431"/>
		
			<line fill="none" stroke="#000000" stroke-width="0.9646" stroke-linecap="round" stroke-miterlimit="10" x1="162.818" y1="197.968" x2="153.14" y2="201.046"/>
		
			<line fill="none" stroke="#000000" stroke-width="0.9646" stroke-linecap="round" stroke-miterlimit="10" x1="139.073" y1="208.239" x2="145.12" y2="206.304"/>
		
			<line fill="none" stroke="#000000" stroke-width="0.9646" stroke-linecap="round" stroke-miterlimit="10" x1="139.194" y1="210.125" x2="147.182" y2="207.799"/>
		
			<line fill="none" stroke="#000000" stroke-width="0.9646" stroke-linecap="round" stroke-miterlimit="10" x1="139.757" y1="211.942" x2="148.077" y2="209.561"/>
	</g>
	<g>
		<path fill="#A73923" stroke="#000000" stroke-width="0.7763" stroke-miterlimit="10" d="M194.1,230.355
			c-6.655,2.107-13.554-2.075-15.408-9.344c-1.854-7.268,2.036-14.87,8.692-16.978c6.654-2.108,13.553,2.076,15.408,9.344
			C204.646,220.646,200.755,228.248,194.1,230.355z"/>
		<path fill="none" stroke="#000000" stroke-width="0.7763" stroke-miterlimit="10" d="M186.288,210.978
			c-0.75,0.237-1.495-0.111-1.665-0.778c-0.171-0.667,0.3-1.399,1.049-1.637c0.749-0.237,1.495,0.111,1.665,0.777
			S187.038,210.74,186.288,210.978z"/>
		<path fill="none" stroke="#000000" stroke-width="0.7763" stroke-miterlimit="10" d="M193.39,212.004
			c-0.828,0.263-1.691-0.277-1.928-1.205s0.242-1.894,1.069-2.156s1.69,0.278,1.927,1.206
			C194.696,210.777,194.216,211.742,193.39,212.004z"/>
		<path fill="none" stroke="#000000" stroke-width="0.7763" stroke-miterlimit="10" d="M183.558,218.004
			c-0.432,0.842-1.238,1.234-1.803,0.875c-0.566-0.359-0.676-1.332-0.246-2.174c0.431-0.843,1.238-1.235,1.804-0.876
			C183.878,216.188,183.987,217.162,183.558,218.004z"/>
		<path fill="none" stroke="#000000" stroke-width="0.7763" stroke-miterlimit="10" d="M189.424,217.283
			c-0.263,0.514-0.835,0.704-1.276,0.424c-0.441-0.281-0.586-0.924-0.324-1.439c0.264-0.514,0.835-0.703,1.276-0.423
			C189.541,216.125,189.687,216.769,189.424,217.283z"/>
		
			<line fill="none" stroke="#000000" stroke-width="0.7763" stroke-linecap="round" stroke-miterlimit="10" x1="187.45" y1="222.085" x2="192.403" y2="230.568"/>
		
			<line fill="none" stroke="#000000" stroke-width="0.7763" stroke-linecap="round" stroke-miterlimit="10" x1="193.446" y1="218.281" x2="198.851" y2="227.359"/>
		
			<line fill="none" stroke="#000000" stroke-width="0.7763" stroke-linecap="round" stroke-miterlimit="10" x1="194.689" y1="216.805" x2="200.095" y2="225.884"/>
		
			<line fill="none" stroke="#000000" stroke-width="0.7763" stroke-linecap="round" stroke-miterlimit="10" x1="195.829" y1="215.22" x2="201.233" y2="224.299"/>
		
			<line fill="none" stroke="#000000" stroke-width="0.7763" stroke-linecap="round" stroke-miterlimit="10" x1="197.265" y1="210.777" x2="202.669" y2="219.855"/>
		
			<line fill="none" stroke="#000000" stroke-width="0.7763" stroke-linecap="round" stroke-miterlimit="10" x1="196.671" y1="213.138" x2="202.075" y2="222.216"/>
		
			<line fill="none" stroke="#000000" stroke-width="0.7763" stroke-linecap="round" stroke-miterlimit="10" x1="191.788" y1="219.525" x2="197.193" y2="228.604"/>
		
			<line fill="none" stroke="#000000" stroke-width="0.7763" stroke-linecap="round" stroke-miterlimit="10" x1="190.126" y1="220.276" x2="195.531" y2="229.354"/>
		
			<line fill="none" stroke="#000000" stroke-width="0.7763" stroke-linecap="round" stroke-miterlimit="10" x1="188.812" y1="221.175" x2="194.216" y2="230.253"/>
		
			<line fill="none" stroke="#000000" stroke-width="0.7763" stroke-linecap="round" stroke-miterlimit="10" x1="186.046" y1="222.979" x2="190.603" y2="230.691"/>
		
			<line fill="none" stroke="#000000" stroke-width="0.7763" stroke-linecap="round" stroke-miterlimit="10" x1="198.231" y1="208.519" x2="203.163" y2="217.108"/>
		
			<line fill="none" stroke="#000000" stroke-width="0.7763" stroke-linecap="round" stroke-miterlimit="10" x1="184.656" y1="223.676" x2="188.856" y2="230.766"/>
		
			<line fill="none" stroke="#000000" stroke-width="0.7763" stroke-linecap="round" stroke-miterlimit="10" x1="183.698" y1="225.361" x2="186.544" y2="230.117"/>
	</g>
	<path fill="#BE764B" stroke="#000000" stroke-width="1.0283" stroke-miterlimit="10" d="M107.085,24.407
		c-30.719-9.525-44.206,16.935-44.206,16.935s-37.189,3.887-19.73,35.192c3.247,5.821,16.817,10.055,16.817,10.055
		s4.412-17.397,10.656-15.348c17.731,5.822,29.814-6.048,38.428-11.519c4.777-3.034,15.29-0.225,25.104-2.927
		c6.414-1.766,11.516-8.449,22.334-6.999c13.666,1.832,18.785,6.401,25.166,7.166c4.53,0.542,15.47-2.133,19,1
		c13.333,11.833,33.082,4.526,44,6.667c17,3.333,24.484,21.083,24.484,21.083s22.516-2.75,18.265-19.762
		c-6.327-25.322-17.981-17.199-20.978-22.755c-15.899-29.478-50.45-18.787-50.45-18.787s-17.234-7.045-23.227-8.467
		c-12.319-2.923-36.962-7.409-50.449-2.381C133.65,16.783,115.884,27.136,107.085,24.407z"/>
	<path fill="none" stroke="#000000" stroke-linecap="round" stroke-miterlimit="10" d="M42.224,51.005c0,0-3.454,28.5,18.717,32.322
		"/>
	<path fill="none" stroke="#000000" stroke-linecap="round" stroke-miterlimit="10" d="M45.202,48.128
		c0,0-2.968,28.856,15.738,32.127"/>
	<path fill="none" stroke="#000000" stroke-linecap="round" stroke-miterlimit="10" d="M47.358,51.712
		c0,0-0.143,26.166,16.229,25.131"/>
	<path fill="none" stroke="#000000" stroke-linecap="round" stroke-miterlimit="10" d="M50.823,56.27
		c0,0-0.012,16.188,14.012,18.415"/>
	<path fill="none" stroke="#000000" stroke-linecap="round" stroke-miterlimit="10" d="M65.233,37.67c0,0,17.272-9.57,31.345-3.082"
		/>
	<path fill="none" stroke="#000000" stroke-linecap="round" stroke-miterlimit="10" d="M62.879,41.342c0,0,13.447-7.293,29.34-4.955
		"/>
	<path fill="none" stroke="#000000" stroke-linecap="round" stroke-miterlimit="10" d="M69.273,32.802c0,0,17.397-7.992,29.435-0.47
		"/>
	<path fill="none" stroke="#000000" stroke-linecap="round" stroke-miterlimit="10" d="M75.668,27.629c0,0,12.695-4.099,23.04,1.477
		"/>
	<path fill="none" stroke="#000000" stroke-linecap="round" stroke-miterlimit="10" d="M84.552,23.697c0,0,8.793-1.323,12.885,2.48"
		/>
	
		<line fill="#FCC675" stroke="#000000" stroke-linecap="round" stroke-miterlimit="10" x1="143.938" y1="51.96" x2="140.536" y2="57.845"/>
	
		<line fill="#FCC675" stroke="#000000" stroke-linecap="round" stroke-miterlimit="10" x1="147.038" y1="50.667" x2="142.661" y2="58.831"/>
	
		<line fill="#FCC675" stroke="#000000" stroke-linecap="round" stroke-miterlimit="10" x1="149.65" y1="50.089" x2="145.297" y2="59.408"/>
	
		<line fill="#FCC675" stroke="#000000" stroke-linecap="round" stroke-miterlimit="10" x1="152.968" y1="49.55" x2="149.069" y2="59.163"/>
	
		<line fill="#FCC675" stroke="#000000" stroke-linecap="round" stroke-miterlimit="10" x1="156.142" y1="50.185" x2="152.757" y2="58.547"/>
	
		<line fill="#FCC675" stroke="#000000" stroke-linecap="round" stroke-miterlimit="10" x1="159.044" y1="50.185" x2="156.548" y2="57.288"/>
	<path fill="#FFFFFF" d="M212.416,217.337c24.107,0.173,74.028-3.729,79.932-38.458c1.265-7.441-6.429-32.472-10.771-48.25
		c-2.924-10.625-15.843-8.549-23.51-5.232l-10.2,20.52c-18.505,2.329-43.992,3.75-83.087,1.921c0,0-73.494-9.697-117.73,29.086
		c0,0-11.262,13.428,9.555,38.04c0,0,7.436,13.051-1.115,27.968c0,0,0.036-0.044,0.104-0.126c-1.076,1.798-1.782,3.64-2.021,5.517
		c-0.544,4.255,3.388,13.024,13.747,12.472c16.012-0.856,54.183-9.364,54.183-9.364l-4.108-24.272l-10.098-17.415
		c5.019-2.301,16.343-2.182,30.544-0.907c18.226,1.638,38.87-12.039,59.326-9.26C197.166,199.575,204.592,217.281,212.416,217.337"
		/>
	<polygon points="94.652,266.5 104.666,263.821 103.054,255.274 94.652,256.881 	"/>
	<path fill="#FFFFFF" stroke="#000000" stroke-miterlimit="10" d="M109.04,214.354c0,0-44.715,12.041-47.047,30.187
		c-0.487,3.803,2.521,8.068,11.812,7.574c14.357-0.766,47.229-6.542,47.229-6.542s-3.19-12.731-3.782-16.97
		C116.703,224.672,109.04,214.354,109.04,214.354z"/>
	<path fill="none" stroke="#000000" stroke-miterlimit="10" d="M250.509,135.02l-7.604,17.544c0,0,34.805-5.141,30.785-14.013
		C271.485,133.684,271.961,134.268,250.509,135.02z"/>
	<polygon fill="#FFFFFF" points="211.713,227.474 213.306,214.743 224.432,213.556 220.749,229.022 	"/>
	<g>
		<path fill="#009444" stroke="#000000" stroke-width="0.5627" stroke-miterlimit="10" d="M99.331,76.044
			c0.346-1.651-6.348,0.225-6.575,2.313c-0.192,1.755,4.79,4.837-1.183,6.978c-4.904,1.758,12.607,13.578,15.058-2.178
			c0.2-1.295,0.229-5.983-3.257-4.068C102.23,79.717,98.089,81.962,99.331,76.044z"/>
		
			<line fill="none" stroke="#000000" stroke-width="0.5627" stroke-linecap="round" stroke-miterlimit="10" x1="96.306" y1="80.583" x2="94.53" y2="76.521"/>
		
			<line fill="none" stroke="#000000" stroke-width="0.5627" stroke-linecap="round" stroke-miterlimit="10" x1="95.006" y1="80.294" x2="93.497" y2="77.209"/>
		
			<line fill="none" stroke="#000000" stroke-width="0.5627" stroke-linecap="round" stroke-miterlimit="10" x1="95.134" y1="90.161" x2="98.97" y2="88.46"/>
		
			<line fill="none" stroke="#000000" stroke-width="0.5627" stroke-linecap="round" stroke-miterlimit="10" x1="93.464" y1="89.527" x2="98.951" y2="87.115"/>
		
			<line fill="none" stroke="#000000" stroke-width="0.5627" stroke-linecap="round" stroke-miterlimit="10" x1="92.732" y1="88.824" x2="98.482" y2="86.291"/>
		
			<line fill="none" stroke="#000000" stroke-width="0.5627" stroke-linecap="round" stroke-miterlimit="10" x1="106.654" y1="81.132" x2="103.063" y2="82.722"/>
		
			<line fill="none" stroke="#000000" stroke-width="0.5627" stroke-linecap="round" stroke-miterlimit="10" x1="106.45" y1="80.119" x2="101.692" y2="82.093"/>
		
			<line fill="none" stroke="#000000" stroke-width="0.5627" stroke-linecap="round" stroke-miterlimit="10" x1="105.981" y1="79.183" x2="101.021" y2="81.218"/>
	</g>
	<g>
		<path fill="#009444" stroke="#000000" stroke-width="0.8193" stroke-miterlimit="10" d="M161.237,296.283
			c-0.739,2.498,8.504,1.082,9.158-2.125c0.55-2.695-5.579-8.629,2.747-10.62c6.837-1.635-14.544-24.034-20.452,0
			c-0.484,1.974-1.309,9.284,3.662,7.081C157.984,289.896,163.885,287.33,161.237,296.283z"/>
		
			<line fill="none" stroke="#000000" stroke-width="0.8193" stroke-linecap="round" stroke-miterlimit="10" x1="166.032" y1="289.884" x2="167.72" y2="296.624"/>
		
			<line fill="none" stroke="#000000" stroke-width="0.8193" stroke-linecap="round" stroke-miterlimit="10" x1="167.72" y1="290.627" x2="169.214" y2="295.782"/>
		
			<line fill="none" stroke="#000000" stroke-width="0.8193" stroke-linecap="round" stroke-miterlimit="10" x1="169.201" y1="275.204" x2="163.798" y2="276.991"/>
		
			<line fill="none" stroke="#000000" stroke-width="0.8193" stroke-linecap="round" stroke-miterlimit="10" x1="171.323" y1="276.569" x2="163.599" y2="279.094"/>
		
			<line fill="none" stroke="#000000" stroke-width="0.8193" stroke-linecap="round" stroke-miterlimit="10" x1="172.181" y1="277.832" x2="164.085" y2="280.487"/>
		
			<line fill="none" stroke="#000000" stroke-width="0.8193" stroke-linecap="round" stroke-miterlimit="10" x1="152.319" y1="286.69" x2="157.378" y2="285.021"/>
		
			<line fill="none" stroke="#000000" stroke-width="0.8193" stroke-linecap="round" stroke-miterlimit="10" x1="152.421" y1="288.317" x2="159.101" y2="286.311"/>
		
			<line fill="none" stroke="#000000" stroke-width="0.8193" stroke-linecap="round" stroke-miterlimit="10" x1="152.891" y1="289.884" x2="159.851" y2="287.83"/>
	</g>
	<g>
		
			<ellipse transform="matrix(0.7373 -0.6756 0.6756 0.7373 6.6916 185.9899)" fill="#A73923" stroke="#000000" stroke-miterlimit="10" cx="242.5" cy="84.391" rx="16.698" ry="17.034"/>
		
			<ellipse transform="matrix(0.7373 -0.6756 0.6756 0.7373 -1.3221 185.0794)" fill="none" stroke="#000000" stroke-miterlimit="10" cx="237.302" cy="94.24" rx="1.532" ry="1.917"/>
		
			<ellipse transform="matrix(0.7373 -0.6755 0.6755 0.7373 3.6458 180.2799)" fill="none" stroke="#000000" stroke-miterlimit="10" cx="233.651" cy="85.452" rx="2.132" ry="2.118"/>
		
			<ellipse transform="matrix(0.0527 -0.9986 0.9986 0.0527 140.4687 336.6421)" fill="none" stroke="#000000" stroke-miterlimit="10" cx="247.677" cy="94.281" rx="1.602" ry="2.141"/>
		
			<ellipse transform="matrix(0.0527 -0.9986 0.9986 0.0527 143.4442 325.5967)" fill="none" stroke="#000000" stroke-miterlimit="10" cx="243.333" cy="87.194" rx="1.251" ry="1.308"/>
		
			<line fill="none" stroke="#000000" stroke-linecap="round" stroke-miterlimit="10" x1="249.841" y1="85.716" x2="256.077" y2="75.055"/>
		
			<line fill="none" stroke="#000000" stroke-linecap="round" stroke-miterlimit="10" x1="242.037" y1="80.508" x2="248.647" y2="68.973"/>
		
			<line fill="none" stroke="#000000" stroke-linecap="round" stroke-miterlimit="10" x1="239.669" y1="79.805" x2="246.28" y2="68.27"/>
		
			<line fill="none" stroke="#000000" stroke-linecap="round" stroke-miterlimit="10" x1="237.246" y1="79.286" x2="243.856" y2="67.75"/>
		
			<line fill="none" stroke="#000000" stroke-linecap="round" stroke-miterlimit="10" x1="231.523" y1="79.972" x2="238.135" y2="68.437"/>
		
			<line fill="none" stroke="#000000" stroke-linecap="round" stroke-miterlimit="10" x1="234.461" y1="79.402" x2="241.071" y2="67.867"/>
		
			<line fill="none" stroke="#000000" stroke-linecap="round" stroke-miterlimit="10" x1="244.405" y1="81.844" x2="251.016" y2="70.308"/>
		
			<line fill="none" stroke="#000000" stroke-linecap="round" stroke-miterlimit="10" x1="246.236" y1="83.453" x2="252.848" y2="71.917"/>
		
			<line fill="none" stroke="#000000" stroke-linecap="round" stroke-miterlimit="10" x1="248.019" y1="84.56" x2="254.63" y2="73.024"/>
		
			<line fill="none" stroke="#000000" stroke-linecap="round" stroke-miterlimit="10" x1="251.673" y1="86.934" x2="257.31" y2="77.177"/>
		
			<line fill="none" stroke="#000000" stroke-linecap="round" stroke-miterlimit="10" x1="228.47" y1="80.031" x2="234.836" y2="69.338"/>
		
			<line fill="none" stroke="#000000" stroke-linecap="round" stroke-miterlimit="10" x1="253.28" y1="88.242" x2="258.455" y2="79.259"/>
		
			<line fill="none" stroke="#000000" stroke-linecap="round" stroke-miterlimit="10" x1="255.702" y1="88.485" x2="259.157" y2="82.425"/>
	</g>
	<path fill="#A73923" stroke="#000000" stroke-width="0.8429" stroke-miterlimit="10" d="M95.413,121.445
		c0,7.763-7.209,17.472-14.377,14.056c-3.168-1.51-7.872-6.315-8.463-14.056c-0.714-9.368,0.523-14.056,8.463-14.056
		C88.978,107.389,95.413,113.683,95.413,121.445z"/>
	
		<line fill="none" stroke="#000000" stroke-width="0.8429" stroke-linecap="round" stroke-miterlimit="10" x1="84.926" y1="126.344" x2="95.085" y2="123.334"/>
	
		<line fill="none" stroke="#000000" stroke-width="0.8429" stroke-linecap="round" stroke-miterlimit="10" x1="83.001" y1="118.825" x2="93.906" y2="115.492"/>
	
		<line fill="none" stroke="#000000" stroke-width="0.8429" stroke-linecap="round" stroke-miterlimit="10" x1="81.907" y1="117.078" x2="92.813" y2="113.744"/>
	
		<line fill="none" stroke="#000000" stroke-width="0.8429" stroke-linecap="round" stroke-miterlimit="10" x1="80.67" y1="115.411" x2="91.575" y2="112.078"/>
	
		<line fill="none" stroke="#000000" stroke-width="0.8429" stroke-linecap="round" stroke-miterlimit="10" x1="76.638" y1="112.639" x2="87.544" y2="109.305"/>
	
		<line fill="none" stroke="#000000" stroke-width="0.8429" stroke-linecap="round" stroke-miterlimit="10" x1="78.835" y1="113.929" x2="89.74" y2="110.596"/>
	
		<line fill="none" stroke="#000000" stroke-width="0.8429" stroke-linecap="round" stroke-miterlimit="10" x1="83.728" y1="120.958" x2="94.633" y2="117.624"/>
	
		<line fill="none" stroke="#000000" stroke-width="0.8429" stroke-linecap="round" stroke-miterlimit="10" x1="83.954" y1="122.958" x2="94.86" y2="119.624"/>
	
		<line fill="none" stroke="#000000" stroke-width="0.8429" stroke-linecap="round" stroke-miterlimit="10" x1="84.441" y1="124.624" x2="95.348" y2="121.291"/>
	
		<line fill="none" stroke="#000000" stroke-width="0.8429" stroke-linecap="round" stroke-miterlimit="10" x1="85.38" y1="128.105" x2="94.633" y2="125.312"/>
	
		<line fill="none" stroke="#000000" stroke-width="0.8429" stroke-linecap="round" stroke-miterlimit="10" x1="74.665" y1="110.972" x2="84.926" y2="108.015"/>
	
		<line fill="none" stroke="#000000" stroke-width="0.8429" stroke-linecap="round" stroke-miterlimit="10" x1="85.64" y1="129.797" x2="94.149" y2="127.217"/>
	
		<line fill="none" stroke="#000000" stroke-width="0.8429" stroke-linecap="round" stroke-miterlimit="10" x1="87.036" y1="131.295" x2="92.754" y2="129.535"/>
	<g>
		<path fill="#A73923" stroke="#000000" stroke-width="0.8956" stroke-miterlimit="10" d="M150.56,260.611
			c-8.779,0.187-16.057-6.084-16.256-14.007c-0.199-7.923,6.756-14.498,15.535-14.685c8.777-0.187,16.057,6.084,16.256,14.007
			C166.293,253.85,159.338,260.424,150.56,260.611z"/>
		<path fill="none" stroke="#000000" stroke-width="0.8956" stroke-miterlimit="10" d="M146.506,238.647
			c-0.988,0.021-1.804-0.551-1.823-1.278c-0.018-0.726,0.769-1.333,1.758-1.354c0.988-0.021,1.805,0.551,1.822,1.277
			C148.281,238.019,147.495,238.626,146.506,238.647z"/>
		<path fill="none" stroke="#000000" stroke-width="0.8956" stroke-miterlimit="10" d="M154.937,241.773
			c-1.092,0.023-1.998-0.777-2.023-1.79c-0.025-1.012,0.84-1.852,1.931-1.875c1.092-0.023,1.997,0.778,2.022,1.791
			C156.893,240.912,156.028,241.75,154.937,241.773z"/>
		<path fill="none" stroke="#000000" stroke-width="0.8956" stroke-miterlimit="10" d="M141.142,244.979
			c-0.771,0.729-1.874,0.889-2.466,0.359c-0.592-0.53-0.448-1.55,0.321-2.279s1.873-0.89,2.466-0.36
			C142.056,243.229,141.911,244.25,141.142,244.979z"/>
		<path fill="none" stroke="#000000" stroke-width="0.8956" stroke-miterlimit="10" d="M148.555,245.969
			c-0.47,0.445-1.226,0.47-1.688,0.056c-0.463-0.414-0.457-1.11,0.014-1.556c0.47-0.445,1.226-0.469,1.688-0.055
			C149.03,244.827,149.024,245.524,148.555,245.969z"/>
		
			<line fill="none" stroke="#000000" stroke-width="0.8956" stroke-linecap="round" stroke-miterlimit="10" x1="144.757" y1="250.265" x2="148.415" y2="260.33"/>
		
			<line fill="none" stroke="#000000" stroke-width="0.8956" stroke-linecap="round" stroke-miterlimit="10" x1="153.211" y1="248.162" x2="157.254" y2="258.964"/>
		
			<line fill="none" stroke="#000000" stroke-width="0.8956" stroke-linecap="round" stroke-miterlimit="10" x1="155.16" y1="247.029" x2="159.203" y2="257.831"/>
		
			<line fill="none" stroke="#000000" stroke-width="0.8956" stroke-linecap="round" stroke-miterlimit="10" x1="157.014" y1="245.754" x2="161.057" y2="256.557"/>
		
			<line fill="none" stroke="#000000" stroke-width="0.8956" stroke-linecap="round" stroke-miterlimit="10" x1="160.048" y1="241.665" x2="164.091" y2="252.467"/>
		
			<line fill="none" stroke="#000000" stroke-width="0.8956" stroke-linecap="round" stroke-miterlimit="10" x1="158.644" y1="243.887" x2="162.687" y2="254.689"/>
		
			<line fill="none" stroke="#000000" stroke-width="0.8956" stroke-linecap="round" stroke-miterlimit="10" x1="150.818" y1="248.938" x2="154.86" y2="259.741"/>
		
			<line fill="none" stroke="#000000" stroke-width="0.8956" stroke-linecap="round" stroke-miterlimit="10" x1="148.562" y1="249.213" x2="152.604" y2="260.016"/>
		
			<line fill="none" stroke="#000000" stroke-width="0.8956" stroke-linecap="round" stroke-miterlimit="10" x1="146.688" y1="249.74" x2="150.731" y2="260.542"/>
		
			<line fill="none" stroke="#000000" stroke-width="0.8956" stroke-linecap="round" stroke-miterlimit="10" x1="142.776" y1="250.76" x2="146.167" y2="259.926"/>
		
			<line fill="none" stroke="#000000" stroke-width="0.8956" stroke-linecap="round" stroke-miterlimit="10" x1="161.883" y1="239.656" x2="165.483" y2="249.823"/>
		
			<line fill="none" stroke="#000000" stroke-width="0.8956" stroke-linecap="round" stroke-miterlimit="10" x1="140.869" y1="251.06" x2="144.001" y2="259.489"/>
		
			<line fill="none" stroke="#000000" stroke-width="0.8956" stroke-linecap="round" stroke-miterlimit="10" x1="139.21" y1="252.489" x2="141.345" y2="258.153"/>
	</g>
	<path fill="none" stroke="#000000" stroke-linecap="round" stroke-miterlimit="10" d="M62.558,242.139
		c0,0,23.271-17.657,39.441-20.376"/>
	<path fill="none" stroke="#000000" stroke-linecap="round" stroke-miterlimit="10" d="M62.558,246.155
		c0,0,22.1-17.657,38.271-20.376"/>
	<path fill="none" stroke="#000000" stroke-linecap="round" stroke-miterlimit="10" d="M63.962,249.186
		c0,0,19.521-17.046,35.691-19.766"/>
	<path fill="none" stroke="#000000" stroke-linecap="round" stroke-miterlimit="10" d="M67.005,251.053
		c0,0,15.304-15.432,31.475-18.151"/>
	<path fill="none" stroke="#000000" stroke-linecap="round" stroke-miterlimit="10" d="M70.193,252.05
		c0,0,15.932-13.72,26.552-15.466"/>
	<path fill="none" stroke="#000000" stroke-linecap="round" stroke-miterlimit="10" d="M75.839,251.983
		c0,0,11.156-9.807,18.813-11.309"/>
	<path fill="none" stroke="#000000" stroke-linecap="round" stroke-miterlimit="10" d="M82.812,251.053c0,0,6.517-5.426,10.267-6.12
		"/>
	<path fill="none" stroke="#000000" stroke-linecap="round" stroke-miterlimit="10" d="M192.455,255.343
		c0,0-2.188,17.782-5.969,25.906"/>
	<path fill="none" stroke="#000000" stroke-linecap="round" stroke-miterlimit="10" d="M194.318,259.538
		c0,0-1.168,9.978-3.383,16.56"/>
	<path fill="none" stroke="#000000" stroke-linecap="round" stroke-miterlimit="10" d="M156.37,313.962c0,0,5.264,2.926,11.877,0"/>
	<path fill="none" stroke="#000000" stroke-linecap="round" stroke-miterlimit="10" d="M158.247,317.278
		c0,0,3.992,1.712,7.785,0.604"/>
	<path fill="none" stroke="#000000" stroke-linecap="round" stroke-miterlimit="10" d="M154.849,311.338
		c0,0,7.643,2.416,12.871-0.403"/>
	<path fill="none" stroke="#000000" stroke-linecap="round" stroke-miterlimit="10" d="M135.721,271.519c0,0,4.062-0.01,7.808,6.313
		"/>
	<path fill="none" stroke="#000000" stroke-linecap="round" stroke-miterlimit="10" d="M136.945,273.783
		c0,0,5.391,3.313,6.198,7.849"/>
	<path fill="none" stroke="#000000" stroke-linecap="round" stroke-miterlimit="10" d="M193.604,38.961
		c0,0,2.87,12.374,10.304,18.288"/>
	<path fill="none" stroke="#000000" stroke-linecap="round" stroke-miterlimit="10" d="M201.014,43.595
		c0,0,2.881,11.228,10.49,17.959"/>
	<path fill="none" stroke="#000000" stroke-linecap="round" stroke-miterlimit="10" d="M206.259,47.191c0,0,3.161,9.35,9.3,15.157"
		/>
	<path fill="none" stroke="#000000" stroke-linecap="round" stroke-miterlimit="10" d="M210.521,48.94
		c0,0,3.843,10.671,9.655,13.713"/>
	<path fill="none" stroke="#000000" stroke-linecap="round" stroke-miterlimit="10" d="M214.861,50.479
		c0,0,1.771,6.118,8.371,11.519"/>
	<path fill="none" stroke="#000000" stroke-linecap="round" stroke-miterlimit="10" d="M219.953,51.717c0,0,1.043,4.625,7.037,9.395
		"/>
	<path fill="none" stroke="#000000" stroke-linecap="round" stroke-miterlimit="10" d="M171.681,25.696
		c0,0,10.072-9.333,19.539-10.112"/>
	<path fill="none" stroke="#000000" stroke-linecap="round" stroke-miterlimit="10" d="M166.29,24.509
		c0,0,10.072-9.333,19.538-10.112"/>
	<path fill="none" stroke="#000000" stroke-linecap="round" stroke-miterlimit="10" d="M160.182,23.899
		c0,0,10.072-9.333,19.538-10.112"/>
	<path fill="none" stroke="#000000" stroke-linecap="round" stroke-miterlimit="10" d="M176.837,26.255
		c0,0,8.641-8.159,18.709-9.518"/>
	<path fill="none" stroke="#000000" stroke-linecap="round" stroke-miterlimit="10" d="M183.139,26.087
		c0,0,7.828-6.676,16.161-8.085"/>
	<path fill="none" stroke="#000000" stroke-linecap="round" stroke-miterlimit="10" d="M188.425,26.708
		c0,0,8.465-7.917,14.986-7.211"/>
	<path fill="none" stroke="#000000" stroke-linecap="round" stroke-miterlimit="10" d="M193.564,26.968
		c0,0,4.876-5.321,13.364-6.138"/>
	<path fill="none" stroke="#000000" stroke-linecap="round" stroke-miterlimit="10" d="M198.349,27.351c0,0,4.648-4.451,12.283-5.08
		"/>
	<path fill="none" stroke="#000000" stroke-linecap="round" stroke-miterlimit="10" d="M267.155,44.149
		c0,0,4.249,7.837,1.373,14.682"/>
	<path fill="none" stroke="#000000" stroke-linecap="round" stroke-miterlimit="10" d="M270.696,45.685c0,0,4.038,11.55,0,17.353"/>
	<path fill="none" stroke="#000000" stroke-linecap="round" stroke-miterlimit="10" d="M274.281,47.171
		c0,0,4.604,13.615-0.719,18.361"/>
	<path fill="none" stroke="#000000" stroke-linecap="round" stroke-miterlimit="10" d="M116,215.85c0,0,3.304,7.076,1.38,12.492"/>
	<path fill="none" stroke="#000000" stroke-linecap="round" stroke-miterlimit="10" d="M118.286,216.133c0,0,3.875,10.087,0,16.309"
		/>
	<path fill="none" stroke="#000000" stroke-linecap="round" stroke-miterlimit="10" d="M121.034,219.43
		c0,0,4.025,12.199-2.174,17.153"/>
	<path fill="none" stroke="#000000" stroke-linecap="round" stroke-miterlimit="10" d="M124.411,224.094
		c0,0,1.944,12.472-4.402,16.771"/>
	<path fill="none" stroke="#000000" stroke-linecap="round" stroke-miterlimit="10" d="M189.883,252.236
		c0,0-1.57,12.841-6.433,36.621"/>
	<path fill="none" stroke="#000000" stroke-linecap="round" stroke-miterlimit="10" d="M196.472,261.195
		c0,0-0.874,8.351-2.154,10.816"/>
	<path fill="none" stroke="#000000" stroke-linecap="round" stroke-miterlimit="10" d="M137.218,128.273
		c2.228,1.302,27.32,18.633,57.717,0"/>
	<path fill="none" stroke="#000000" stroke-linecap="round" stroke-miterlimit="10" d="M142.903,135.099
		c0,0,23.424,13.135,46.346,0.253"/>
	<path fill="none" stroke="#000000" stroke-linecap="round" stroke-miterlimit="10" d="M124.692,101.914
		c0,0,11.514-22.77,42.193-21.361c18.515,0.85,34.275,13.936,38.984,21.361"/>
	<path fill="none" stroke="#000000" stroke-linecap="round" stroke-miterlimit="10" d="M126.306,95.643
		c0,0,9.65-18.799,40.361-18.445c18.733,0.216,30.362,11.094,37.064,18.445"/>
	<path fill="none" stroke="#000000" stroke-width="1.0031" stroke-linecap="round" stroke-miterlimit="10" d="M124.58,115.78
		c0,0,10.333-20.107,43.913-19.025c18.84,0.607,30.549,11.094,37.293,18.445"/>
	<path fill="none" stroke="#000000" stroke-width="1.0031" stroke-linecap="square" stroke-miterlimit="10" d="M124.429,115.629
		c0,0,4.847-26.752,43.936-25.419c24.026,0.819,36.611,17.096,37.805,25.301"/>
	<path fill="#FCC675" stroke="#000000" stroke-miterlimit="10" d="M178.622,225.779"/>
	<polygon points="103.968,263.777 105.759,269.64 117.252,265.652 115.661,259.926 	"/>
	<polygon fill="#FCC675" points="88.25,153.813 91.934,166.199 150.048,158.813 241.468,155.172 246.204,143.547 133.188,143.813 	
		"/>
	<path fill="none" stroke="#000000" stroke-width="0.7886" stroke-linecap="round" stroke-miterlimit="10" d="M148.372,140.574
		c0,0,18.717,9.874,37.028,0.146"/>
	<g>
		<path fill="#009444" stroke="#000000" stroke-width="0.665" stroke-miterlimit="10" d="M230.733,129.678
			c0.421-1.899-7.705,0.259-7.982,2.661c-0.232,2.019,5.815,5.564-1.436,8.026c-5.953,2.022,15.307,15.619,18.279-2.506
			c0.244-1.49,0.279-6.882-3.953-4.679C234.253,133.904,229.226,136.486,230.733,129.678z"/>
		
			<line fill="none" stroke="#000000" stroke-width="0.665" stroke-linecap="round" stroke-miterlimit="10" x1="227.062" y1="134.899" x2="224.907" y2="130.226"/>
		
			<line fill="none" stroke="#000000" stroke-width="0.665" stroke-linecap="round" stroke-miterlimit="10" x1="225.483" y1="134.567" x2="223.652" y2="131.019"/>
		
			<line fill="none" stroke="#000000" stroke-width="0.665" stroke-linecap="round" stroke-miterlimit="10" x1="225.638" y1="145.917" x2="230.296" y2="143.96"/>
		
			<line fill="none" stroke="#000000" stroke-width="0.665" stroke-linecap="round" stroke-miterlimit="10" x1="223.61" y1="145.188" x2="230.272" y2="142.413"/>
		
			<line fill="none" stroke="#000000" stroke-width="0.665" stroke-linecap="round" stroke-miterlimit="10" x1="222.724" y1="144.379" x2="229.704" y2="141.464"/>
		
			<line fill="none" stroke="#000000" stroke-width="0.665" stroke-linecap="round" stroke-miterlimit="10" x1="239.624" y1="135.531" x2="235.264" y2="137.359"/>
		
			<line fill="none" stroke="#000000" stroke-width="0.665" stroke-linecap="round" stroke-miterlimit="10" x1="239.377" y1="134.366" x2="233.6" y2="136.637"/>
		
			<line fill="none" stroke="#000000" stroke-width="0.665" stroke-linecap="round" stroke-miterlimit="10" x1="238.807" y1="133.289" x2="232.784" y2="135.629"/>
	</g>
	<g>
		<path fill="#009444" stroke="#000000" stroke-width="0.7834" stroke-miterlimit="10" d="M117.633,147.204
			c1.766,1.509,4.304-7.742,1.919-9.399c-2.004-1.393-9.357,2.524-7.664-6.04c1.393-7.032-25.662,6.085-8.198,19.458
			c1.435,1.098,7.136,4.241,7.312-1.2C111.06,148.238,111.306,141.796,117.633,147.204z"/>
		
			<line fill="none" stroke="#000000" stroke-width="0.7834" stroke-linecap="round" stroke-miterlimit="10" x1="114.274" y1="140.577" x2="120.513" y2="141.146"/>
		
			<line fill="none" stroke="#000000" stroke-width="0.7834" stroke-linecap="round" stroke-miterlimit="10" x1="115.563" y1="139.212" x2="120.417" y2="139.454"/>
		
			<line fill="none" stroke="#000000" stroke-width="0.7834" stroke-linecap="round" stroke-miterlimit="10" x1="103.431" y1="132.827" x2="102.739" y2="138.544"/>
		
			<line fill="none" stroke="#000000" stroke-width="0.7834" stroke-linecap="round" stroke-miterlimit="10" x1="105.409" y1="131.249" x2="104.396" y2="139.413"/>
		
			<line fill="none" stroke="#000000" stroke-width="0.7834" stroke-linecap="round" stroke-miterlimit="10" x1="106.794" y1="130.84" x2="105.739" y2="139.399"/>
		
			<line fill="none" stroke="#000000" stroke-width="0.7834" stroke-linecap="round" stroke-miterlimit="10" x1="106.143" y1="152.594" x2="106.792" y2="147.243"/>
		
			<line fill="none" stroke="#000000" stroke-width="0.7834" stroke-linecap="round" stroke-miterlimit="10" x1="107.525" y1="153.021" x2="108.548" y2="146.02"/>
		
			<line fill="none" stroke="#000000" stroke-width="0.7834" stroke-linecap="round" stroke-miterlimit="10" x1="109.007" y1="153.081" x2="110.103" y2="145.796"/>
	</g>
	<path d="M274.047,138.056c0,0,2,22-112.334,16.667c0,0-66.001-6.333-105.667,28.333c0,0-10,9.667,8.667,31.667
		c0,0,6.667,11.667-1,25c0,0,33.333-41.334,129.334-28.334c0,0,80.668,7.668,90.334-31.666L274.047,138.056z"/>
	<path fill="none" d="M76.403,211.881c0,0,50-29.002,102.084-20.43c0,0,63.9,12.293,93.529-14.887"/>
	<text transform="matrix(0.9208 -0.39 0.39 0.9208 84.3623 207.6323)"><tspan x="0" y="0" fill="#FFFFFF" font-family="'News706BT-BoldC'" font-size="23">V</tspan><tspan x="15.761" y="-0.059" fill="#FFFFFF" font-family="'News706BT-BoldC'" font-size="23" rotate="4.805">E</tspan><tspan x="33.551" y="1.392" fill="#FFFFFF" font-family="'News706BT-BoldC'" font-size="23" rotate="10.303">G</tspan><tspan x="51.602" y="4.694" fill="#FFFFFF" font-family="'News706BT-BoldC'" font-size="23" rotate="16.22">A</tspan><tspan x="68.496" y="9.582" fill="#FFFFFF" font-family="'News706BT-BoldC'" font-size="23" rotate="23.737">N</tspan><tspan x="86.464" y="17.917" fill="#FFFFFF" font-family="'News706BT-BoldC'" font-size="23" rotate="30.012"> </tspan><tspan x="91.587" y="20.906" fill="#FFFFFF" font-family="'News706BT-BoldC'" font-size="23" rotate="32.562"> </tspan><tspan x="97.241" y="24.672" fill="#FFFFFF" font-family="'News706BT-BoldC'" font-size="23" rotate="28.529">P</tspan><tspan x="112.952" y="33.043" fill="#FFFFFF" font-family="'News706BT-BoldC'" font-size="23" rotate="24.554">I</tspan><tspan x="122.332" y="37.445" fill="#FFFFFF" font-family="'News706BT-BoldC'" font-size="23" rotate="20.195">Z</tspan><tspan x="138.386" y="43.326" fill="#FFFFFF" font-family="'News706BT-BoldC'" font-size="23" rotate="13.018">Z</tspan><tspan x="155.77" y="47.3" fill="#FFFFFF" font-family="'News706BT-BoldC'" font-size="23" rotate="1.821">A</tspan></text>
	<line fill="none" stroke="#000000" stroke-miterlimit="10" x1="87.666" y1="153.021" x2="91.5" y2="167"/>
	<line fill="none" stroke="#000000" stroke-miterlimit="10" x1="247.567" y1="141.464" x2="241.273" y2="155.478"/>
	<polygon fill="#FCC675" points="215.188,211.881 212.115,221.952 202.771,211.91 	"/>
	<line fill="none" stroke="#000000" stroke-miterlimit="10" x1="216.315" y1="209.957" x2="210.72" y2="227.57"/>
</g>
</svg>
