<?xml version="1.0" encoding="utf-8"?>
<!-- Generator: Adobe Illustrator 16.0.0, SVG Export Plug-In . SVG Version: 6.00 Build 0)  -->
<!DOCTYPE svg PUBLIC "-//W3C//DTD SVG 1.1//EN" "http://www.w3.org/Graphics/SVG/1.1/DTD/svg11.dtd">
<svg version="1.1" id="Layer_1" xmlns="http://www.w3.org/2000/svg" xmlns:xlink="http://www.w3.org/1999/xlink" x="0px" y="0px"
	 width="131.333px" height="132px" viewBox="0 0 131.333 132" enable-background="new 0 0 131.333 132" xml:space="preserve">
<ellipse fill="#C32527" stroke="#800000018000000180000001" stroke-width="2" stroke-miterlimit="10" cx="65.099" cy="63.999" rx="59.544" ry="59.225"/>
<ellipse fill="#F15B5D" stroke="#800000018000000180000001" stroke-width="2" stroke-miterlimit="10" cx="65.099" cy="63.999" rx="50.89" ry="49.32"/>
<path fill="#C32527" stroke="#800000018000000180000001" stroke-width="2" stroke-miterlimit="10" d="M60.905,24.821
	C48.055,23.04,23.609,35.693,26.998,59.746c0.721,5.116,24.688,3.119,24.688,3.119s-7.335-5.458-1.396-11.847
	c6.743-7.252,13.159,2.407,13.159,2.407S66.867,25.647,60.905,24.821z"/>
<path fill="#C32527" stroke="#800000018000000180000001" stroke-width="2" stroke-miterlimit="10" d="M73.755,27.493
	c-0.086,0.003-3.548,25.932-3.548,25.932s9.641-4.697,13.586,2.3c4.723,8.377-3.166,14.655-3.166,14.655s15.277,8.121,20.252,8.976
	C108.102,80.597,111.826,26.277,73.755,27.493z"/>
<path fill="#C32527" stroke="#800000018000000180000001" stroke-width="2" stroke-miterlimit="10" d="M89.699,89.728
	c3.409,16.061-59.787,27.335-59.838-12.615c-0.01-6.949,22.536-7.964,22.536-7.964s-1.147,9.662,10.431,11.57
	c10.319,1.701,14.835-4.933,14.835-4.933S88.725,85.139,89.699,89.728z"/>
</svg>
