<?xml version="1.0" encoding="utf-8"?>
<!-- Generator: Adobe Illustrator 16.0.0, SVG Export Plug-In . SVG Version: 6.00 Build 0)  -->
<!DOCTYPE svg PUBLIC "-//W3C//DTD SVG 1.1//EN" "http://www.w3.org/Graphics/SVG/1.1/DTD/svg11.dtd">
<svg version="1.1" id="Layer_1" xmlns="http://www.w3.org/2000/svg" xmlns:xlink="http://www.w3.org/1999/xlink" x="0px" y="0px"
	 width="132.94px" height="127.333px" viewBox="0 0 132.94 127.333" enable-background="new 0 0 132.94 127.333"
	 xml:space="preserve">
<path fill="#EB9848" stroke="#000000" stroke-width="2" stroke-miterlimit="10" d="M93.086,33.399c0,0,0.718,0.096-10.028-5.345
	s-3.659-17.524-3.659-17.524l-9.313,8.188L67.461,7.82l-2.125,10.523l-10.938-8.125c0,0,7.908,12.217,0.058,18.245
	c-0.258,0.198-0.893,0.403-1.204,0.498c-20.526,6.191-35.687,24.896-35.687,47.406c0,27.247,22.086,42.311,49.333,42.311
	c27.246,0,49.334-15.064,49.334-42.311C116.232,58.526,107.273,42.063,93.086,33.399z"/>
<path fill="none" stroke="#000000" stroke-width="2" stroke-linecap="round" stroke-miterlimit="10" d="M53.829,35.012
	c0,0-47.392,23.078-19.723,74.301"/>
<path fill="none" stroke="#000000" stroke-width="2" stroke-linecap="round" stroke-miterlimit="10" d="M61.327,38.844
	c0,0-33.521,32.25-15.428,76.458"/>
<path fill="none" stroke="#000000" stroke-width="2" stroke-linecap="round" stroke-miterlimit="10" d="M66.898,42.014
	c0,0-19.238,49.682-4.738,76.507"/>
<path fill="none" stroke="#000000" stroke-width="2" stroke-linecap="round" stroke-miterlimit="10" d="M83.076,36.261
	c0,0,29.369,16.577,25.333,64.088"/>
<path fill="none" stroke="#000000" stroke-width="2" stroke-linecap="round" stroke-miterlimit="10" d="M79.967,41.478
	c0,0,16.982,26.791,16.338,69.997"/>
<path fill="none" stroke="#000000" stroke-width="2" stroke-linecap="round" stroke-miterlimit="10" d="M72.993,43.509
	c0,0,8.333,38.565,6,74.118"/>
</svg>
