<?xml version="1.0" encoding="utf-8"?>
<!-- Generator: Adobe Illustrator 16.0.0, SVG Export Plug-In . SVG Version: 6.00 Build 0)  -->
<!DOCTYPE svg PUBLIC "-//W3C//DTD SVG 1.1//EN" "http://www.w3.org/Graphics/SVG/1.1/DTD/svg11.dtd">
<svg version="1.1" id="Layer_1" xmlns="http://www.w3.org/2000/svg" xmlns:xlink="http://www.w3.org/1999/xlink" x="0px" y="0px"
	 width="106.667px" height="114.808px" viewBox="0 0 106.667 114.808" enable-background="new 0 0 106.667 114.808"
	 xml:space="preserve">
<g>
	<path fill="#009444" stroke="#000000" stroke-width="2" stroke-miterlimit="10" d="M45.687,97.847
		c-2.791,8.38,32.129,3.631,34.598-7.127c2.076-9.041-21.075-28.946,10.379-35.626c25.825-5.485-54.944-80.62-77.262,0
		c-1.831,6.623-4.943,31.143,13.836,23.754C33.4,76.424,55.688,67.813,45.687,97.847z"/>
	
		<line fill="none" stroke="#000000" stroke-width="2" stroke-linecap="round" stroke-miterlimit="10" x1="63.803" y1="76.38" x2="70.174" y2="98.99"/>
	
		<line fill="none" stroke="#000000" stroke-width="2" stroke-linecap="round" stroke-miterlimit="10" x1="70.174" y1="78.875" x2="75.818" y2="96.165"/>
	
		<line fill="none" stroke="#000000" stroke-width="2" stroke-linecap="round" stroke-miterlimit="10" x1="75.773" y1="27.136" x2="55.361" y2="33.133"/>
	
		<line fill="none" stroke="#000000" stroke-width="2" stroke-linecap="round" stroke-miterlimit="10" x1="83.79" y1="31.717" x2="54.606" y2="40.186"/>
	
		<line fill="none" stroke="#000000" stroke-width="2" stroke-linecap="round" stroke-miterlimit="10" x1="87.025" y1="35.953" x2="56.446" y2="44.858"/>
	
		<line fill="none" stroke="#000000" stroke-width="2" stroke-linecap="round" stroke-miterlimit="10" x1="12.001" y1="65.668" x2="31.107" y2="60.069"/>
	
		<line fill="none" stroke="#000000" stroke-width="2" stroke-linecap="round" stroke-miterlimit="10" x1="12.385" y1="71.124" x2="37.618" y2="64.396"/>
	
		<line fill="none" stroke="#000000" stroke-width="2" stroke-linecap="round" stroke-miterlimit="10" x1="14.159" y1="76.38" x2="40.449" y2="69.492"/>
</g>
</svg>
