<?xml version="1.0" encoding="utf-8"?>
<!-- Generator: Adobe Illustrator 16.0.0, SVG Export Plug-In . SVG Version: 6.00 Build 0)  -->
<!DOCTYPE svg PUBLIC "-//W3C//DTD SVG 1.1//EN" "http://www.w3.org/Graphics/SVG/1.1/DTD/svg11.dtd">
<svg version="1.1" id="Layer_1" xmlns="http://www.w3.org/2000/svg" xmlns:xlink="http://www.w3.org/1999/xlink" x="0px" y="0px"
	 width="169.543px" height="107.333px" viewBox="0 0 169.543 107.333" enable-background="new 0 0 169.543 107.333"
	 xml:space="preserve">
<g>
	<path fill="#C32527" stroke="#800000018000000180000001" stroke-width="2" stroke-miterlimit="10" d="M6.021,92.196h157.5
		c0-43.492-35.258-78.75-78.75-78.75S6.021,48.704,6.021,92.196z"/>
	<path fill="#F15B5D" stroke="#800000018000000180000001" stroke-width="2" stroke-miterlimit="10" d="M27.844,92.032h114.852
		c0-31.715-25.711-57.426-57.426-57.426C53.554,34.606,27.844,60.317,27.844,92.032z"/>
	<path fill="#C32527" stroke="#800000018000000180000001" stroke-width="2" stroke-miterlimit="10" d="M37.854,92.196h93.837
		c0-25.912-21.006-46.919-46.919-46.919C58.859,45.277,37.854,66.284,37.854,92.196z"/>
	<path fill="#F15B5D" stroke="#800000018000000180000001" stroke-width="2" stroke-miterlimit="10" d="M57.854,92.196h53.837
		c0-14.867-12.052-26.919-26.919-26.919C69.905,65.277,57.854,77.329,57.854,92.196z"/>
	
		<circle fill="#F15B5D" stroke="#800000018000000180000001" stroke-width="2" stroke-miterlimit="10" cx="56.569" cy="72.237" r="3.5"/>
	
		<circle fill="#F15B5D" stroke="#800000018000000180000001" stroke-width="2" stroke-miterlimit="10" cx="111.69" cy="71.403" r="3.5"/>
	
		<circle fill="#F15B5D" stroke="#800000018000000180000001" stroke-width="2" stroke-miterlimit="10" cx="102.737" cy="62.821" r="3.5"/>
	
		<circle fill="#F15B5D" stroke="#800000018000000180000001" stroke-width="2" stroke-miterlimit="10" cx="91.736" cy="57.822" r="3.5"/>
	
		<circle fill="#F15B5D" stroke="#800000018000000180000001" stroke-width="2" stroke-miterlimit="10" cx="77.771" cy="57.822" r="3.5"/>
	
		<circle fill="#F15B5D" stroke="#800000018000000180000001" stroke-width="2" stroke-miterlimit="10" cx="66.105" cy="62.821" r="3.5"/>
</g>
</svg>
