<?xml version="1.0" encoding="utf-8"?>
<!-- Generator: Adobe Illustrator 16.0.0, SVG Export Plug-In . SVG Version: 6.00 Build 0)  -->
<!DOCTYPE svg PUBLIC "-//W3C//DTD SVG 1.1//EN" "http://www.w3.org/Graphics/SVG/1.1/DTD/svg11.dtd">
<svg version="1.1" id="Layer_1" xmlns="http://www.w3.org/2000/svg" xmlns:xlink="http://www.w3.org/1999/xlink" x="0px" y="0px"
	 width="97.791px" height="173.5px" viewBox="0 0 97.791 173.5" enable-background="new 0 0 97.791 173.5" xml:space="preserve">
<g>
	<path fill="#098442" stroke="#000000" stroke-width="2" stroke-miterlimit="10" d="M50.797,10.786
		c0,0-73.172,66.963-14.883,118.371c7.225,6.372,13.711,8.51,12.805,36.342c0,0,1.385,3.807,3.809,0c0,0-4.852-22.229,5.191-34.611
		C76.664,107.529,108.943,89.354,50.797,10.786z"/>
	
		<path fill="#098442" stroke="#71BF4E" stroke-width="2" stroke-linecap="round" stroke-linejoin="round" stroke-miterlimit="10" d="
		M49.625,39.336c0,0-9.332,17.167-0.832,90.333"/>
	<path fill="none" stroke="#71BF4E" stroke-width="2" stroke-linecap="round" stroke-linejoin="round" stroke-miterlimit="10" d="
		M35.959,54.841c0,0-0.166,15.333,9.166,25.167"/>
	<path fill="none" stroke="#71BF4E" stroke-width="2" stroke-linecap="round" stroke-linejoin="round" stroke-miterlimit="10" d="
		M26.959,80.008c0,0,3.156,16.258,19.889,30.495"/>
	<path fill="none" stroke="#71BF4E" stroke-width="2" stroke-linecap="round" stroke-linejoin="round" stroke-miterlimit="10" d="
		M56.625,47.508c0,0-1.721,16.314-11.359,23.824"/>
	<path fill="none" stroke="#71BF4E" stroke-width="2" stroke-linecap="round" stroke-linejoin="round" stroke-miterlimit="10" d="
		M61.793,73.341c0,0-3.391,23-14.945,32.667"/>
</g>
</svg>
